<?xml version="1.0" encoding="utf-8"?>
<!-- Generator: Adobe Illustrator 21.0.0, SVG Export Plug-In . SVG Version: 6.00 Build 0)  -->
<svg version="1.1" id="Layer_1" xmlns="http://www.w3.org/2000/svg" xmlns:xlink="http://www.w3.org/1999/xlink" x="0px" y="0px"
	 viewBox="0 0 841.9 595.3" style="enable-background:new 0 0 841.9 595.3;" xml:space="preserve">
<style type="text/css">
	.st0{fill:#FFFFFF;}
</style>
<g>
	<path class="st0" d="M604.3,214.5c17.4,5.2,33.7,14.3,47.4,26.5c6.8,6.1,13.1,12.9,18.5,20.4c5.4,7.4,10.1,15.5,13.8,24
		c15,33.8,14.5,74.4-1.9,107.8c-8.1,16.7-19.9,31.4-34.1,43.1c-7.1,5.9-14.7,11-22.8,15.2c-8.1,4.3-16.6,7.7-25.3,10.3
		c-17.5,5.1-36,6.6-54.1,4.5l-3.4-0.4l-3.4-0.6c-1.1-0.2-2.3-0.4-3.4-0.6l-3.3-0.7c-2.2-0.4-4.4-1-6.7-1.6c-2.2-0.5-4.4-1.3-6.6-2
		c-8.7-2.9-17.1-6.7-25-11.3c-15.8-9.3-29.8-21.9-40.5-37c-10.8-15-18.2-32.5-21.7-50.8c-1.8-9.1-2.5-18.4-2.4-27.7
		c0.1-4.7,0.4-9.3,1.1-13.9c0.6-4.6,1.5-9.2,2.6-13.7c2.2-9.1,5.5-17.9,9.6-26.2c2-4.2,4.3-8.3,6.6-12.2c2.4-3.9,4.8-7.8,7.5-11.6
		c1.3-1.9,2.7-3.8,4.1-5.6c1.4-1.8,2.9-3.7,4.2-5.4l4.2-5.3c1.4-1.8,2.7-3.4,4-5.2c5.3-7.4,10.8-14.6,16.1-21.8
		c5.3-7.2,10.4-14.6,15.1-22.1c4.7-7.6,9-15.3,12.3-23.5c0.5-1,0.8-2,1.2-3.1l1.1-3.1c0.3-1,0.6-2.1,0.9-3.1c0.3-1,0.7-2.1,0.9-3.1
		l0.7-3.2l0.3-1.6l0.2-1.6l0.4-3.2c0-0.1,0-0.3,0-0.4l0-0.2c0-0.2,0-0.3,0-0.5c0-0.2,0-0.3-0.1-0.4c0-0.1-0.1-0.2-0.1-0.4
		c-0.4-1-2-1.9-3.8-2.5c-1.9-0.6-4-0.9-6.1-1.1c-4.3-0.4-8.7-0.3-13.2,0c-17.8,1.3-35.6,4.8-53.2,8.7l0,0c-0.2,0-0.4-0.1-0.5-0.3
		c0-0.2,0.1-0.4,0.3-0.5c8.6-2.7,17.4-5,26.2-7.1c8.8-2,17.7-3.9,26.8-4.9c4.6-0.5,9.1-0.9,13.9-0.7c2.4,0.1,4.8,0.4,7.2,1
		c1.2,0.4,2.5,0.8,3.7,1.5c1.2,0.7,2.5,1.8,3.3,3.4c0.2,0.4,0.4,0.8,0.5,1.2c0.1,0.4,0.3,0.8,0.3,1.2c0.1,0.4,0.1,0.8,0.1,1.2l0,0.6
		c0,0.2,0,0.3,0,0.5l-0.3,3.5l-0.2,1.8l-0.3,1.7l-0.6,3.5c-0.2,1.2-0.5,2.3-0.8,3.4c-0.3,1.1-0.6,2.3-0.9,3.4l-1.1,3.3
		c-0.4,1.1-0.7,2.2-1.2,3.3c-6.6,17.4-16.6,32.9-26.9,47.8c-5.2,7.5-10.5,14.7-15.7,22.1c-1.3,1.9-2.8,3.8-4.1,5.6l-4.2,5.4
		c-1.4,1.8-2.7,3.5-4,5.3c-1.3,1.8-2.6,3.6-3.8,5.4c-5,7.3-9.7,14.9-13.5,22.7c-1.9,3.9-3.7,7.9-5.2,12c-1.5,4.1-2.9,8.2-4,12.5
		c-1.1,4.2-2,8.5-2.6,12.8c-0.6,4.3-1,8.7-1.2,13c-0.2,8.7,0.3,17.5,1.9,26.2c3,17.3,9.7,33.9,19.5,48.5
		c9.8,14.6,22.6,27.3,37.5,36.9c7.5,4.8,15.5,8.7,23.9,11.8c2.1,0.7,4.2,1.6,6.3,2.2c2.1,0.6,4.3,1.3,6.4,1.8l3.3,0.8
		c1.1,0.3,2.2,0.4,3.3,0.6l3.3,0.6l3.3,0.5c17.7,2.4,36,1,53-4.3c8.5-2.6,16.8-6.2,24.5-10.7c7.7-4.5,14.9-9.8,21.5-15.7
		c6.6-5.9,12.5-12.6,17.7-19.7c0.7-0.9,1.3-1.8,1.9-2.7l1.9-2.7c1.2-1.9,2.3-3.7,3.5-5.6c1-1.9,2.2-3.8,3.2-5.8l1.4-3
		c0.5-1,1-2,1.4-3c3.7-8,6.4-16.4,8.4-24.9c2-8.6,3-17.3,3.2-26.1c0.3-8.8-0.5-17.6-2.1-26.2c-0.4-2.2-0.9-4.3-1.3-6.5
		c-0.6-2.1-1-4.3-1.7-6.4c-1.2-4.2-2.7-8.4-4.3-12.5c-3.4-8.1-7.5-16-12.5-23.3c-1.2-1.9-2.5-3.6-3.8-5.4c-0.7-0.9-1.4-1.7-2-2.6
		c-0.7-0.9-1.4-1.7-2.1-2.6c-2.8-3.4-5.9-6.6-9-9.8c-12.7-12.4-28-22.3-44.8-28.9c-0.2-0.1-0.3-0.3-0.2-0.5
		C603.9,214.5,604.1,214.4,604.3,214.5z"/>
</g>
<g>
	<path class="st0" d="M394.4,398.7c-6.2,12.3-14.5,23.7-24.6,33.3c-10,9.7-21.8,17.7-34.5,23.6c-6.4,2.9-13,5.4-19.8,7.2
		c-3.4,0.9-6.8,1.7-10.3,2.4c-3.5,0.6-6.9,1.2-10.5,1.5c-3.5,0.4-7,0.6-10.5,0.7c-3.5,0-7.1,0-10.6-0.3c-7-0.4-14-1.6-20.8-3.2
		c-6.8-1.7-13.5-3.9-19.9-6.7c-6.4-2.8-12.6-6.1-18.5-9.9c-5.9-3.8-11.4-8-16.6-12.6c-5.2-4.6-10.1-9.6-14.5-14.9
		c-17.9-21.1-29.4-47.6-32.1-75.4c-0.7-6.9-0.8-14-0.4-20.9c0.4-7,1.4-14,3-20.8c3.1-13.7,8.6-26.9,16.1-38.9
		c7.4-12,16.8-22.8,27.7-31.9c2.7-2.3,5.5-4.4,8.4-6.5c2.9-2,5.9-3.9,9-5.7c6.1-3.6,12.5-6.7,19.1-9.2c26.5-10.1,56.2-11.3,83.2-3
		c13.5,4.1,26.1,10.8,37.2,19.1c5.6,4.1,10.8,8.7,15.8,13.5c1.3,1.2,2.5,2.4,3.7,3.6l3.5,3.8l6.9,7.7c0.1,0.2,0.1,0.4,0,0.6
		c-0.2,0.1-0.4,0.1-0.5,0l0,0l-7.6-6.9l-3.8-3.5c-1.3-1.1-2.6-2.2-3.9-3.3c-5.3-4.3-10.7-8.4-16.4-12.1c-5.7-3.7-11.6-6.9-17.7-9.7
		c-6.1-2.8-12.4-5-18.9-6.7c-25.9-6.6-53.7-4.9-78.4,4.9c-24.7,9.6-46.4,27-60.9,49.4c-7.3,11.2-12.7,23.5-16.2,36.4
		c-3.5,12.9-5.1,26.4-4.5,39.9c0.3,6.7,1.1,13.5,2.6,20.1c1.4,6.6,3.4,13.1,5.9,19.4c2.5,6.3,5.6,12.4,9.1,18.2
		c1.8,2.9,3.7,5.7,5.7,8.4c2,2.7,4.2,5.4,6.4,7.9c9,10.2,19.7,18.8,31.5,25.4c5.9,3.3,12,6.1,18.3,8.4c3.1,1.2,6.3,2.2,9.6,3.1
		c3.2,0.9,6.5,1.7,9.8,2.4c13.1,2.7,26.5,3.5,39.8,2.3c3.3-0.3,6.6-0.8,9.9-1.3c3.3-0.6,6.6-1.2,9.8-2.1c6.5-1.6,12.8-3.7,19-6.3
		c24.7-10.3,46.1-28.6,61-51.6c0.1-0.2,0.4-0.2,0.6-0.1C394.4,398.3,394.5,398.5,394.4,398.7z"/>
</g>
<g>
	<path class="st0" d="M325.9,458c-21.7,9.8-46.8,12.5-70.6,8.3c-6-1.1-11.9-2.5-17.6-4.4c-5.8-1.9-11.4-4.2-16.9-6.9
		c-10.9-5.4-21-12.5-29.7-20.9c-4.3-4.2-8.4-8.8-12.1-13.6c-3.7-4.8-7-9.8-10-15.1c-1.5-2.6-2.9-5.3-4.2-8c-1.3-2.7-2.5-5.4-3.7-8.2
		c-2.4-5.5-4.2-11.2-5.8-17c-6.3-23-6.7-47.7-1-71.1c2.9-11.7,7.4-23.1,13.5-33.6c3-5.3,6.5-10.3,10.3-15c3.8-4.7,8-9.2,12.4-13.4
		c8.9-8.4,18.9-15.5,29.7-21.1c10.9-5.6,22.5-9.8,34.5-12c24-4.7,49.3-2,71.7,7c5.6,2.3,11.1,4.9,16.3,7.9c5.2,3,10.2,6.4,14.9,10.1
		c2.4,1.8,4.6,3.8,6.8,5.8c1.1,1,2.2,2,3.2,3.1l1.6,1.6c0.5,0.5,1,1,1.6,1.5c2.2,2,4.5,3.8,6.7,5.8c2.2,2,4.5,3.9,6.5,6.2
		c0.1,0.2,0.1,0.4,0,0.6c-0.2,0.1-0.4,0.1-0.5,0l0,0c-2-2-4.5-3.8-6.8-5.6c-2.4-1.8-4.7-3.5-7.1-5.4c-0.6-0.5-1.2-1-1.8-1.4
		l-1.7-1.4c-1.1-0.9-2.3-1.8-3.4-2.7c-2.3-1.8-4.7-3.5-7.2-5.1c-4.8-3.3-9.9-6.1-15.1-8.7c-5.2-2.6-10.6-4.8-16.1-6.6
		c-10.9-3.7-22.4-6-33.8-6.7c-5.7-0.4-11.5-0.3-17.2,0.1c-5.7,0.4-11.4,1.2-17,2.3c-1.4,0.3-2.8,0.6-4.2,0.9
		c-1.4,0.4-2.8,0.7-4.1,1.1c-2.8,0.7-5.5,1.6-8.2,2.5c-5.4,1.9-10.7,4.1-15.8,6.7c-10.3,5.1-19.8,11.6-28.4,19.2
		c-8.5,7.7-16.1,16.5-22.2,26.2c-3.1,4.8-5.9,9.9-8.4,15.1c-2.5,5.2-4.6,10.6-6.3,16.2c-3.5,11.1-5.5,22.7-5.7,34.4
		c-0.2,11.7,1.3,23.5,4.7,34.7c3.3,11.2,8.4,21.9,14.9,31.6c6.5,9.7,14.2,18.4,22.9,26c2.1,1.9,4.4,3.8,6.6,5.5
		c2.3,1.7,4.6,3.5,7,5.1c4.7,3.3,9.7,6.2,14.8,8.8c10.2,5.2,21.2,9.1,32.5,11.5c5.7,1.2,11.4,2.1,17.2,2.6c2.9,0.2,5.8,0.4,8.7,0.4
		c2.9,0.1,5.8,0,8.7-0.1c5.8-0.3,11.6-0.9,17.4-1.8c5.8-1,11.5-2.3,17.2-4c0.2-0.1,0.4,0.1,0.5,0.3C326.1,457.8,326.1,458,325.9,458
		z"/>
</g>
</svg>
