<?xml version="1.0" encoding="utf-8"?>
<!-- Generator: Adobe Illustrator 21.0.0, SVG Export Plug-In . SVG Version: 6.00 Build 0)  -->
<svg version="1.1" id="Layer_1" xmlns="http://www.w3.org/2000/svg" xmlns:xlink="http://www.w3.org/1999/xlink" x="0px" y="0px"
	 viewBox="0 0 841.9 518" style="enable-background:new 0 0 841.9 518;" xml:space="preserve">
<style type="text/css">
	.st0{fill:#FFFFFF;}
</style>
<g>
	<path class="st0" d="M678,129.5c25.3,7.9,49,21.5,68.8,39.4c9.9,9,19,19,26.7,29.9c4,5.4,7.5,11.1,10.9,16.9l2.4,4.4
		c0.8,1.5,1.5,3,2.3,4.5c1.6,3,2.9,6.1,4.3,9.1c21.6,49.3,20.7,108.1-2.8,156.7c-11.6,24.3-28.7,45.8-49.2,63
		c-10.2,8.6-21.4,16.1-33.2,22.4c-11.7,6.3-24.2,11.4-36.9,15.1c-25.5,7.5-52.6,9.7-79,6.5l-5-0.6l-4.9-0.8
		c-1.6-0.3-3.3-0.5-4.9-0.9l-4.9-1.1c-1.6-0.4-3.3-0.7-4.9-1.1l-4.8-1.3c-3.2-0.8-6.4-1.9-9.6-2.9c-12.6-4.3-24.9-9.8-36.4-16.7
		c-23-13.7-43.2-32.2-58.7-54.2c-15.6-21.9-26.2-47.4-31.2-73.9c-2.5-13.3-3.6-26.8-3.4-40.3c0.2-6.8,0.7-13.5,1.6-20.2
		c0.9-6.7,2.2-13.3,3.8-19.9c3.3-13.1,8-25.9,13.9-38c3-6.1,6.2-12,9.7-17.7c3.5-5.7,7-11.4,10.9-16.9c1.9-2.8,3.9-5.5,5.9-8.2
		c2-2.7,4.1-5.4,6.2-7.9l6.2-7.8c2.1-2.6,4-5.1,5.9-7.8c7.7-10.8,15.7-21.3,23.4-32c7.7-10.7,15.2-21.5,22.1-32.6
		c6.9-11.1,13.1-22.6,18-34.7c2.4-6,4.5-12.2,6-18.4c0.4-1.6,0.8-3.1,1-4.7l0.4-2.4L559,32c0.3-1.6,0.4-3.2,0.6-4.8
		c0-0.2,0-0.4,0.1-0.6l0-0.4c0-0.1,0-0.3,0-0.4l-0.1-0.4c0-0.3-0.1-0.5-0.2-0.8c0-0.3-0.2-0.5-0.3-0.7c-0.9-1.9-3.5-3.4-6.3-4.2
		c-2.9-0.9-6-1.3-9.2-1.6c-6.4-0.5-12.9-0.3-19.5,0.2c-13.1,1-26.1,3-39.1,5.3c-6.5,1.2-13,2.5-19.4,3.8c-6.5,1.4-12.9,2.8-19.3,4.4
		c-0.2,0.1-0.4-0.1-0.5-0.3c-0.1-0.2,0.1-0.4,0.3-0.5c12.7-3.8,25.5-7.1,38.5-10c12.9-2.9,26-5.4,39.3-6.9
		c6.6-0.7,13.3-1.2,20.2-0.8c3.4,0.2,6.9,0.6,10.3,1.5c1.7,0.5,3.5,1.1,5.2,2.1c1.7,1,3.4,2.5,4.4,4.5c0.3,0.5,0.5,1,0.7,1.5
		c0.2,0.5,0.3,1.1,0.4,1.6l0.1,0.8c0,0.3,0,0.5,0,0.8l0,0.8c0,0.3,0,0.4,0,0.7c-0.1,1.7-0.2,3.4-0.4,5.1l-0.3,2.5l-0.4,2.5
		c-0.2,1.7-0.6,3.3-0.9,5c-1.4,6.6-3.5,13.1-5.8,19.4c-4.8,12.6-10.9,24.6-17.7,36.1c-6.8,11.5-14.2,22.6-21.9,33.4
		c-7.6,10.9-15.5,21.5-23.1,32.3c-1,1.3-1.9,2.7-3,4.1l-3.1,4l-6.1,7.8c-2.1,2.6-4,5.1-6,7.8c-1.9,2.6-3.8,5.3-5.6,8
		c-7.3,10.8-14.2,21.9-19.9,33.5c-2.9,5.8-5.4,11.8-7.7,17.8c-2.2,6.1-4.2,12.2-5.9,18.5c-1.6,6.3-2.9,12.6-3.8,19
		c-0.9,6.4-1.5,12.8-1.7,19.3c-0.3,12.9,0.5,25.9,2.8,38.7c4.6,25.5,14.5,50.1,29.1,71.6c7.3,10.8,15.7,20.8,25,29.9
		c9.3,9.1,19.6,17.2,30.7,24.2c11.1,7,22.9,12.7,35.2,17.2c3.1,1.1,6.2,2.3,9.3,3.1l4.7,1.4c0.8,0.2,1.6,0.5,2.4,0.6l2.4,0.6
		l4.8,1.1c1.6,0.4,3.2,0.6,4.8,0.9l4.8,0.9l4.9,0.7c26,3.5,52.8,1.4,78-6.3c12.6-3.8,24.7-9,36.1-15.5c11.4-6.5,22.1-14.2,31.8-22.9
		c9.8-8.7,18.6-18.4,26.3-28.9c1-1.3,1.9-2.7,2.8-4l2.8-4c1.8-2.7,3.5-5.5,5.2-8.3c1.6-2.9,3.2-5.7,4.7-8.5l2.2-4.4
		c0.7-1.5,1.5-2.9,2.1-4.4c5.4-11.8,9.6-24.2,12.5-36.8c2.9-12.6,4.5-25.6,4.8-38.6c0.2-6.5-0.1-13-0.5-19.5
		c-0.3-3.2-0.6-6.5-1.1-9.7c-0.2-1.6-0.4-3.2-0.7-4.8l-0.9-4.8c-0.3-1.6-0.6-3.2-1-4.8c-0.3-1.6-0.7-3.2-1-4.8
		c-0.8-3.1-1.5-6.3-2.5-9.4c-1.8-6.3-4.1-12.3-6.5-18.4c-5.1-12-11.2-23.5-18.6-34.3c-1.8-2.7-3.8-5.3-5.7-7.9c-1-1.3-2-2.6-3-3.8
		l-1.5-1.9l-1.6-1.9l-3.2-3.7l-3.3-3.6l-1.7-1.8l-1.7-1.7c-1.2-1.2-2.3-2.3-3.5-3.5c-18.8-18.1-41.5-32.4-66.2-41.8
		c-0.2-0.1-0.3-0.3-0.2-0.5C677.6,129.5,677.8,129.4,678,129.5z"/>
</g>
<g>
	<path class="st0" d="M370.4,399.2c-9.3,17.9-21.7,34.2-36.6,48.1c-14.8,14-31.9,25.5-50.5,33.9c-18.6,8.4-38.6,13.9-59,15.9
		c-5.1,0.5-10.2,0.8-15.3,0.9c-5.1,0-10.2,0-15.3-0.4c-5.1-0.3-10.2-0.9-15.3-1.6c-5-0.8-10.1-1.7-15-3c-9.9-2.4-19.7-5.6-29.1-9.5
		c-4.7-1.9-9.3-4.2-13.8-6.5c-4.5-2.4-8.9-4.9-13.2-7.6c-8.6-5.4-16.8-11.5-24.4-18.2c-7.7-6.6-14.8-13.9-21.3-21.6
		c-6.6-7.7-12.5-15.9-17.8-24.5c-5.3-8.6-9.9-17.6-13.9-26.9c-1-2.3-2-4.7-2.8-7c-0.4-1.2-0.9-2.4-1.3-3.6l-1.2-3.6
		c-0.8-2.4-1.5-4.8-2.3-7.2c-0.7-2.4-1.4-4.9-2-7.3c-2.5-9.8-4.2-19.9-5.1-30c-0.9-10.1-1.1-20.3-0.3-30.5
		c0.7-10.2,2.2-20.3,4.6-30.2c4.7-19.9,12.7-39,23.6-56.4c5.4-8.7,11.5-17,18.3-24.7c6.7-7.7,14.1-15,22-21.5
		c3.9-3.3,8-6.4,12.2-9.4c4.2-2.9,8.5-5.7,13-8.3c2.2-1.3,4.5-2.5,6.7-3.8c2.3-1.2,4.5-2.4,6.9-3.5c4.6-2.3,9.3-4.3,14.1-6.1
		c38.4-14.7,81.5-16.6,120.7-4.9c19.6,5.8,38,15.4,54.4,27.4c4.1,3,8.1,6.1,12,9.3c3.9,3.3,7.7,6.6,11.3,10.1
		c7.4,6.9,14.3,14.2,20.9,21.8c0.1,0.2,0.1,0.4,0,0.6c-0.2,0.1-0.4,0.1-0.5,0c-3.6-3.5-7.2-7-10.8-10.4c-3.7-3.4-7.4-6.8-11.2-10
		c-7.6-6.5-15.6-12.5-23.9-18c-8.3-5.5-17-10.4-25.9-14.6c-9-4.2-18.3-7.5-27.8-10.1c-38.2-10.1-79.4-7.6-115.9,6.8
		c-36.6,14.3-68.7,40-89.9,73.2c-21.3,33.1-32,73.1-29.8,112.8c0.5,9.9,1.9,19.8,4.1,29.5c2.1,9.7,5.1,19.3,8.8,28.5
		c3.7,9.3,8.3,18.2,13.5,26.7c2.6,4.2,5.4,8.4,8.4,12.4c1.4,2,3,4,4.5,5.9c1.6,1.9,3.2,3.9,4.8,5.7c1.6,1.9,3.3,3.7,5,5.5
		c1.7,1.8,3.5,3.6,5.3,5.3c1.8,1.7,3.6,3.4,5.5,5.1c1.9,1.6,3.7,3.3,5.7,4.8c7.7,6.3,15.9,11.9,24.6,16.9c4.3,2.5,8.7,4.7,13.2,6.9
		c4.5,2.1,9,4.1,13.7,5.8c4.6,1.8,9.3,3.3,14.1,4.7c4.8,1.3,9.5,2.6,14.4,3.6c4.8,1.1,9.7,1.8,14.6,2.6c4.9,0.6,9.8,1.2,14.7,1.4
		c9.8,0.6,19.7,0.4,29.5-0.5c4.9-0.4,9.8-1.1,14.7-1.9c4.8-0.9,9.7-1.9,14.5-3.1c9.6-2.4,18.9-5.6,28-9.5
		c36.4-15.4,67.7-42.7,88.9-76.8c0.1-0.2,0.4-0.2,0.6-0.1C370.4,398.7,370.5,399,370.4,399.2z"/>
</g>
<g>
	<path class="st0" d="M270.1,486c-32.1,13.6-68.5,17.2-103.1,10.9c-8.7-1.6-17.2-3.7-25.6-6.5c-8.4-2.8-16.5-6.2-24.5-10.1
		c-15.8-7.9-30.4-18.2-43.2-30.3c-6.4-6.1-12.3-12.6-17.7-19.6c-5.4-6.9-10.4-14.2-14.8-21.8c-2.2-3.8-4.3-7.6-6.3-11.5
		c-1.9-3.9-3.8-7.9-5.5-11.9c-3.5-8-6.2-16.3-8.6-24.7c-2.3-8.4-4.1-17-5.3-25.6c-0.6-4.3-1.1-8.7-1.4-13c-0.3-4.3-0.5-8.7-0.6-13.1
		c0-8.7,0.3-17.5,1.4-26.2c1-8.7,2.7-17.3,4.9-25.8c1.1-4.3,2.4-8.5,3.7-12.6c1.4-4.2,2.9-8.3,4.6-12.4c3.3-8.2,7.3-16,11.8-23.7
		c4.5-7.6,9.6-14.8,15.1-21.7c5.6-6.9,11.6-13.3,18.1-19.4c12.9-12,27.5-22.4,43.2-30.5c15.8-8.1,32.6-14.1,50-17.4
		c34.8-6.9,71.4-3.2,104.2,9.6c8.2,3.3,16.2,7,23.8,11.3c7.6,4.3,15,9.1,21.9,14.5c3.5,2.7,6.8,5.5,10.1,8.4
		c1.6,1.5,3.2,2.9,4.8,4.5l2.3,2.3c0.8,0.7,1.5,1.4,2.4,2.2c3.2,2.8,6.6,5.6,9.9,8.4c3.3,2.9,6.6,5.6,9.6,8.9c0.1,0.2,0.1,0.4,0,0.6
		c-0.2,0.1-0.4,0.1-0.6,0l0,0c-3-3-6.5-5.7-9.9-8.3c-3.4-2.6-6.9-5.3-10.3-8c-0.8-0.7-1.7-1.4-2.5-2.1l-2.5-2.1
		c-1.6-1.4-3.3-2.7-5-4.1c-3.4-2.6-6.8-5.2-10.4-7.6c-7.1-4.9-14.5-9.2-22.1-13.1c-7.6-3.9-15.5-7.2-23.6-10
		c-16.1-5.6-32.9-9.1-49.9-10.3c-8.5-0.6-17-0.6-25.4-0.1c-4.2,0.2-8.4,0.7-12.6,1.2c-4.2,0.6-8.4,1.3-12.5,2.2
		c-2.1,0.4-4.1,0.9-6.2,1.4c-2,0.5-4.1,1-6.1,1.6c-4.1,1.1-8.1,2.4-12.1,3.7c-8,2.8-15.8,6.1-23.4,9.9
		c-15.2,7.6-29.3,17.2-41.9,28.6c-25.2,22.8-44,52.6-53.9,85.4c-2.5,8.2-4.4,16.6-5.7,25.1c-1.4,8.5-2.1,17.1-2.2,25.7
		c-0.2,17.2,2.1,34.5,6.9,51c4.8,16.5,12.2,32.3,21.5,46.7c9.4,14.4,20.6,27.4,33.4,38.7c12.7,11.4,26.8,21.1,41.9,28.8
		c15.2,7.7,31.4,13.3,48.1,16.9c8.4,1.7,16.8,2.9,25.3,3.6c4.3,0.3,8.5,0.5,12.8,0.5c4.3,0.1,8.6,0,12.8-0.2
		c8.6-0.5,17.1-1.5,25.6-3.1c8.5-1.6,16.8-3.7,25.1-6.3c0.2-0.1,0.4,0,0.5,0.3C270.4,485.7,270.3,485.9,270.1,486z"/>
</g>
</svg>
